/* XPM */
static char *eb1d0812cdac4826c0b98eedaf7b47a8[] = {
/* columns rows colors chars-per-pixel */
"16 16 120 2 ",
"   c #28C796",
".  c #37CA9C",
"X  c #00E095",
"o  c #00E096",
"O  c #00E097",
"+  c #00E197",
"@  c #00E098",
"#  c #00E198",
"$  c #00E199",
"%  c #01E199",
"&  c #02E198",
"*  c #00E39B",
"=  c #01E49C",
"-  c #0CE39E",
";  c #03E5A0",
":  c #27E6AC",
">  c #2AE6A9",
",  c #2AE6AA",
"<  c #28E6AC",
"1  c #2EE8AE",
"2  c #48D1A8",
"3  c #4CD1A8",
"4  c #59D0A7",
"5  c #5ED1A9",
"6  c #5ED3AB",
"7  c #5ED2AD",
"8  c #6CD7B2",
"9  c #76DCBE",
"0  c #7ADDBF",
"q  c #47EEBB",
"w  c #63E8BF",
"e  c #7CDEC1",
"r  c #76EEC9",
"t  c #77EEC9",
"y  c #77EDCA",
"u  c #79EECB",
"i  c #84DEC1",
"p  c #88DEC0",
"a  c #8BDFC2",
"s  c #ACDECD",
"d  c #84E0C6",
"f  c #8DE0C7",
"g  c #8FE2C7",
"h  c #8EEECE",
"j  c #93E0C5",
"k  c #94E2C9",
"l  c #9BE2C9",
"z  c #98E3CB",
"x  c #9FE0CB",
"c  c #9CE2CA",
"v  c #9CE3CB",
"b  c #93F1CF",
"n  c #94F1CF",
"m  c #90EED1",
"M  c #96F1D2",
"N  c #96F1D3",
"B  c #90F3D4",
"V  c #9EF2D7",
"C  c #9DF2D8",
"Z  c #A0E2CE",
"A  c #AEE0CE",
"S  c #ACE1D2",
"D  c #ACE7D2",
"F  c #B2E2D3",
"G  c #B1EBDA",
"H  c #B7EBDA",
"J  c #BDEEDF",
"K  c #ADF4DE",
"L  c #ACF4DF",
"P  c #C4F5E4",
"I  c #C8F0E4",
"U  c #CFF1E5",
"Y  c #C0FAE9",
"T  c #D3F3E9",
"R  c #D7F3E9",
"E  c #D5F3EA",
"W  c #E4F2ED",
"Q  c #E4F7F0",
"!  c #E7F7F1",
"~  c #E7F7F2",
"^  c #E7F7F3",
"/  c #E9F7F2",
"(  c #E8F7F3",
")  c #E9F7F3",
"_  c #E9F7F4",
"`  c #EAF6F4",
"'  c #EAF7F4",
"]  c #ECF7F4",
"[  c #E1FEF2",
"{  c #E5F9F5",
"}  c #E9F8F4",
"|  c #EAF8F4",
" . c #EBF8F4",
".. c #EBF8F5",
"X. c #ECF8F5",
"o. c #ECF8F6",
"O. c #EDF9F6",
"+. c #F1FAF7",
"@. c #F4F9F7",
"#. c #F1F9F8",
"$. c #F2FAF9",
"%. c #F3FAF9",
"&. c #F5FAF9",
"*. c #F5FBF9",
"=. c #F7F9FA",
"-. c #F6FAFA",
";. c #F6FBFB",
":. c #F6FCFB",
">. c #F7FCFB",
",. c #F9FCFB",
"<. c #FBF9FC",
"1. c #FDFBFC",
"2. c #FFFBFF",
"3. c #FDFCFC",
"4. c #FCFCFE",
"5. c #FFFCFF",
"6. c #FFFDFF",
"7. c #FFFEFF",
"8. c gray100",
"9. c None",
/* pixels */
"9.9.9.9.9.9.% X % % 9.9.9.9.9.9.",
"9.9.9.9.X > y V V y > X 9.9.9.9.",
"9.9.9.% b 2.8.8.8.8.2.n % 9.9.9.",
"9.9.% P 8.=.` | ( ( &.8.P % 9.9.",
"9.X M 8.` #.&.` | | &.8.8.M X 9.",
"9.< 2.8.8.( ! #.#.&.R i 8.8.1 9.",
"X y 8.R c z k 8.;.8.H . f W w = ",
"% L @.8 7 J G D 6 T 3 e 6 A m ; ",
"% Y F g 8.O.2 i j 4 0 I ,.8.K X ",
"X B S { 8.z   9 8.( 8.8.] 8.u X ",
"9.q c Z p p Q U &.&.` | =.8.: 9.",
"9.* h s l 4.8.4.( X.| ] 8.N X 9.",
"9.9.- [ 8.<.! ` ] ( &.8.P % 9.9.",
"9.9.9.% b 8.2.2.2.8.2.M @ 9.9.9.",
"9.9.9.9.X > y C V y > X 9.9.9.9.",
"9.9.9.9.9.9.% % % X 9.9.9.9.9.9."
};
