/* XPM */
static char *_987e375787c48a8c8a85952c9d77606[] = {
/* columns rows colors chars-per-pixel */
"64 64 101 2 ",
"   c #00AF66",
".  c #00AF68",
"X  c #00B26C",
"o  c #00B573",
"O  c #00BA7C",
"+  c #01BE83",
"@  c #0ABF87",
"#  c #0BBF88",
"$  c #10BE84",
"%  c #2ABF88",
"&  c #07C087",
"*  c #04C28B",
"=  c #0AC28D",
"-  c #14C18B",
";  c #19C18B",
":  c #07C591",
">  c #0DC592",
",  c #13C592",
"<  c #1DC694",
"1  c #1CC99A",
"2  c #00DF93",
"3  c #26CA9D",
"4  c #2BCB9D",
"5  c #31CC9F",
"6  c #3CC99C",
"7  c #00E196",
"8  c #00E19A",
"9  c #0AE29B",
"0  c #2FCDA2",
"q  c #33CEA3",
"w  c #3CCEA3",
"e  c #02E4A3",
"r  c #08E4A7",
"t  c #07E5A8",
"y  c #0DE5A8",
"u  c #10E5AA",
"i  c #1BE5A9",
"p  c #24E6AD",
"a  c #2CE5AA",
"s  c #28E8B1",
"d  c #44CCA2",
"f  c #48CEA3",
"g  c #41D0A7",
"h  c #44D1AA",
"j  c #4BD2AC",
"k  c #52D3AD",
"l  c #4FD5B0",
"z  c #54D5B1",
"x  c #5AD5B2",
"c  c #61D7B5",
"v  c #69D5B2",
"b  c #64D9B8",
"n  c #6CDABB",
"m  c #73DCBE",
"M  c #7BDCBF",
"N  c #4CE9B7",
"B  c #45EAB9",
"V  c #4AEABA",
"C  c #52EBBC",
"Z  c #7CDEC2",
"A  c #5FECC3",
"S  c #63ECC3",
"D  c #6BECC3",
"F  c #67EDC8",
"G  c #6AEDC9",
"H  c #7CEFCF",
"J  c #83DEC3",
"K  c #89DEC5",
"L  c #84E0C5",
"P  c #8DE0C7",
"I  c #8DE2CA",
"U  c #94E3CD",
"Y  c #99E4CF",
"T  c #9CE6D1",
"R  c #9EF2D9",
"E  c #A3E6D3",
"W  c #A9E6D1",
"Q  c #A4E8D6",
"!  c #A9E8D6",
"~  c #ACE9D8",
"^  c #B3EBDA",
"/  c #BBECDD",
"(  c #A3F3DB",
")  c #ACF3DC",
"_  c #BCF4E4",
"`  c #C3EEE2",
"'  c #CCEFE3",
"]  c #C3F4E5",
"[  c #CEF1E7",
"{  c #CBF5EA",
"}  c #D4F5EC",
"|  c #DCF4ED",
" . c #E2F6EF",
".. c #E3F7F2",
"X. c #E9F7F3",
"o. c #E7F8F4",
"O. c #ECF8F5",
"+. c #F0F9F6",
"@. c #F4FAF9",
"#. c #FEFDFE",
"$. c None",
/* pixels */
"$.$.$.$.$.$.$.$.$.$.$.$.$.$.$.$.$.$.$.$.$.$.$.$.$.$.$.$.$.$.$.$.$.$.$.$.$.$.$.$.$.$.$.$.$.$.$.$.$.$.$.$.$.$.$.$.$.$.$.$.$.$.$.$.",
"$.$.$.$.$.$.$.$.$.$.$.$.$.$.$.$.$.$.$.$.$.$.$.$.$.$.$.$.y y y y y y y y $.$.$.$.$.$.$.$.$.$.$.$.$.$.$.$.$.$.$.$.$.$.$.$.$.$.$.$.",
"$.$.$.$.$.$.$.$.$.$.$.$.$.$.$.$.$.$.$.$.$.$.$.$.$.y y y y y y y y y y y y y y $.$.$.$.$.$.$.$.$.$.$.$.$.$.$.$.$.$.$.$.$.$.$.$.$.",
"$.$.$.$.$.$.$.$.$.$.$.$.$.$.$.$.$.$.$.$.$.$.y y y y y y y y u u y u y y y y y y y y $.$.$.$.$.$.$.$.$.$.$.$.$.$.$.$.$.$.$.$.$.$.",
"$.$.$.$.$.$.$.$.$.$.$.$.$.$.$.$.$.$.$.y y y y u y y e 8 8 8 8 8 8 8 8 8 8 e t u y y y y y $.$.$.$.$.$.$.$.$.$.$.$.$.$.$.$.$.$.$.",
"$.$.$.$.$.$.$.$.$.$.$.$.$.$.$.$.$.y y y y u t 8 7 8 9 s V S G H H G A N s e 8 7 e t y y y y y $.$.$.$.$.$.$.$.$.$.$.$.$.$.$.$.$.",
"$.$.$.$.$.$.$.$.$.$.$.$.$.$.$.$.y y y u r 8 8 i S R } @.#.#.#.#.#.#.#.#.@.} R D i 7 8 r u y y y $.$.$.$.$.$.$.$.$.$.$.$.$.$.$.$.",
"$.$.$.$.$.$.$.$.$.$.$.$.$.$.y y y y r 8 8 N ) @.#.#.#.@.+.O.O.X.X.O.+.@.@.#.#.#.+.) N 8 8 r y y y y $.$.$.$.$.$.$.$.$.$.$.$.$.$.",
"$.$.$.$.$.$.$.$.$.$.$.$.$.y y y u 8 8 C ] #.#.@.O.O.O.O.O.O.O.O.O.O.O.O.O.O.X.O.@.#.#.` C 8 8 u y y y $.$.$.$.$.$.$.$.$.$.$.$.$.",
"$.$.$.$.$.$.$.$.$.$.$.$.y y y r 2 a _ #.#.+.X.O.O.O.O.O.O.O.O.O.O.O.O.O.O.O.O.O.O.O.+.#.#./ a 2 t u y y $.$.$.$.$.$.$.$.$.$.$.$.",
"$.$.$.$.$.$.$.$.$.$.$.y y u e 7 D #.#.+.X.O.O.O.O.O.O.O.O.+.O.O.O.O.O.O.O.O.O.O.O.O.O.X.+.#.#.D 7 e u u y $.$.$.$.$.$.$.$.$.$.$.",
"$.$.$.$.$.$.$.$.$.$.y y y 8 7 ( #.@.X.O.O.O.O.O.O.O.O.O.O.O.O.O.O.O.O.O.O.O.O.O.O.O.O.O.O.X.@.#.( 7 8 y y y $.$.$.$.$.$.$.$.$.$.",
"$.$.$.$.$.$.$.$.$.y y u 8 9 { #.+.O.O.O.O.O.O.O.O.O.O.O.O.O.O.O.O.O.O.O.O.O.O.O.O.O.O.O.O.O.X.+.#.{ 9 8 u y y $.$.$.$.$.$.$.$.$.",
"$.$.$.$.$.$.$.$.y y u 8 9 } #.O.O.O.O.O.O.O.O.O.O.O.O.O.O.O.O.O.O.O.O.O.O.O.O.O.O.O.O.O.O.O.O.O.X.#.} 9 8 u y y $.$.$.$.$.$.$.$.",
"$.$.$.$.$.$.$.y y u 8 8 { #.O.O.O.O.O.O.O.O.O.O.O.O.O.O.O.O.O.O.O.O.O.O.O.+.O.O.O.O.O.O.O.O.O.O.O.O.#.{ 7 e u y y $.$.$.$.$.$.$.",
"$.$.$.$.$.$.$.y y t 7 ( #.O.O.O.O.O.O.O.O.O.O.O.O.O.O.O.O.O.O.O.O.O.O.O.O.O.O.O.O.O.O.O.O.O.O.+.O.O.O.#.( 2 r y y $.$.$.$.$.$.$.",
"$.$.$.$.$.$.y y y 2 D #.+.O.O.O.O.O.O.O.O.O.O.O.O.O.O.O.O.O.O.O.O.O.O.O.O.O.O.O.O.O.O.O.O.O.O.O.O.O.O.O.#.D 2 y y y $.$.$.$.$.$.",
"$.$.$.$.$.y y y 8 p #.@.O.O.O.O.O.O.O.O.O.O.O.O.O.O.O.O.O.O.O.O.O.O.O.O.O.O.O.O.O.O.O.O.O.O.O.O.O.O.O.O.@.#.p 8 u y y $.$.$.$.$.",
"$.$.$.$.$.y y t 7 ] #.X.O.O.O.O.O.O.O.O.O.O.O.O.O.O.O.O.O.O.O.O.O.O.O.O.O.O.O.O.O.O.O.O.O.O.O.O.O.O.O.O.X.#._ 7 r y y $.$.$.$.$.",
"$.$.$.$.y y u 7 V #.+.O.O.O.O.O.O.O.O.O.O.O.O.O.O.O.O.O.O.O.O.O.O.O.O.O.O.O.O.O.O.O.O.O.O.O.O.O.O.O.O.O.O.+.#.V 8 u y y $.$.$.$.",
"$.$.$.$.y y r 8 [ #.X.O.O.O.O.O.O.O.O.O.O.O.O.O.O.O.O.O.O.O.O.O.O.O.O.O.O.O.O.O.O.O.O.O.@.#.#.O.O.O.O.O.O.O.#.} 8 r y y $.$.$.$.",
"$.$.$.$.y u 7 B #.+.O.O.O.O.O.O.O.O.O.O.O.O.O.O.O.O.O.O.O.O.O.O.O.O.O.O.O.O.O.O.O.O.X.#.#.` W #.O.o.O.O.O.O.+.#.B 7 u y $.$.$.$.",
"$.$.$.y y t 7 ) #.X.O.O.O.O.O.O.O.O.O.O.O.O.X.#.#.O.O.O.O.O.O.O.O.O.O.O.O.O.O.O.O.o.#.| 6 O o J #.+.O.O.O.O.o.#.) 7 t y y $.$.$.",
"$.$.$.y y e i @.#.O.O.O.O.O.O.O.O.O.O.O.O.X.@.| / @.O.O.O.O.O.O.O.O.O.O.O.O.O.O.O.@.#.; + Z : +  .#.O.O.O.O.O.@.@.i e y y $.$.$.",
"$.$.$.y u 8 S #.O.O.O.O.O.O.O.O.O.O.O.O.O.+.#.k o [ #.O.O.O.O.O.O.O.O.O.O.O.O.O.O.#.Z X } #.n O / #.O.O.O.X.O.X.#.S 8 u y $.$.$.",
"$.$.y y r 8 ( #.X.O.O.O.O.O.X.O.#.#.#.O.X.+.#.w o E #.O.O.O.O.O.O.O.O.O.O.O.O.O.@.#.: 3 #.#.^ o Y #.X.O.X.#.@.X.#.( 8 t y y $.$.",
"$.$.y y e e | #.O.O.O.O.O.X.+.#.| I ^ #.+.X.#.b o U #.o.O.O.O.O.@.@.X.O.O.O.O.O.#.` o M #.#.~ o k #.O.X.@. .| #.#.| e e y y $.$.",
"$.$.y u 8 s @.@.O.O.O.O.o.#.#.J + X O M #.O.#.^ o z #.O.O.O.o.#.#.#.@.X.O.O.O.X.#.Y o E #.#.Y + & [ #.#.#.6 U ^ K #.s 8 y y $.$.",
"$.y y y 8 V #.+.O.O.O.X.@.#.x X > U q O [ #.#.+.> > @.#.O.X.#.+.f k #.@.O.O.O.X.#.L o / #.#.c * + 5 #.#.P * / o + #.C 8 y y y $.",
"$.y y u 8 A #.O.O.O.O.+.#.c X 4 o.#.1 * O.#.X.#.c o / #.o.@.#.h X o P #.X.O.O.O.#.z + [ #.#.* Z E X 5 j   c #.d J #.S 8 y y y $.",
"$.y y y 7 G #.O.O.O.O.#.U X 4 @.#.P   w #.+.X.#.Q o Z #.X.#.T o z , = X.#.X.X.#./ * * } #.U o | #.n o o j +.@.#.#.#.D 8 y y y $.",
"$.y y y 8 H #.O.O.X.#.| + @  .#.#.~ % ^ #.X.O.#.O.* 4 #.#.#., - #.U X m #.@.#...= + * U +.O j #.+.#.` / #.#.X.@.O.#.H 8 y y y $.",
"$.y y y 8 H #.O.O.+.#.z X I #.X.O.@.#.#.O.O.O.O.#.j O  .#.^ X Y #.+.> O | #.` ; + U * = * @ +.#.X.O.#.#.+.O.O.O.O.#.H 8 y y y $.",
"$.y y u 8 G #.O.X.#.[ + , @.#.O.O.O.@.O.O.O.O.#. .< & Q #.h & @.#.#.U X 0 b & X Y #.Z O @ } #.O.O.O.O.O.O.O.O.O.O.#.D 8 y y y $.",
"$.y y y 8 A #.O.X.#.m X L #.X.O.O.O.O.O.O.O.O.#.n O * M #.& z #.X.@.#.h o X & I #.@.#.' X.#.X.O.O.O.O.O.O.O.O.O.O.#.S 8 y y y $.",
"$.y y y 8 N #.+.@.#.3 + ' #.X.O.O.O.O.O.O.o.#. .O k 0 h ' o ~ #.X.X.#.@.M m } #.O.O.+.#.@.X.O.O.O.O.O.O.O.O.O.O.+.#.V 8 y y y $.",
"$.$.y y 8 p #.@.#.} * 1 @.#.O.O.O.O.O.O.X.O.#.h o O.n , z = X.#.X.O.o.#.#.#.#.X.O.O.O.O.O.O.O.O.O.O.O.O.O.O.O.O.@.@.p e y y $.$.",
"$.$.y y e e } #.#./ O w #.@.O.O.O.O.O.O.o.#./ X x #.U & & h #.+.O.O.X.O.O.O.O.O.O.O.O.O.O.O.O.O.O.O.O.O.O.O.O.X.#.} e e y y $.$.",
"$.$.y y y 7 ( #.#.~ O k #.+.O.O.O.O.O.X.#.#.; + O.#.` : * m #.O.O.O.O.O.O.O.O.O.O.O.O.O.O.O.O.O.O.O.O.O.O.O.O.O.#.( 7 y y y $.$.",
"$.$.$.y y 8 S #.#.! O j #.@.O.O.O.O.X.@.#.z   Q #.#.+.3 O U #.X.O.O.O.O.O.O.O.O.O.O.O.O.O.O.O.O.O.O.O.O.O.O.O.O.#.S 7 u y $.$.$.",
"$.$.$.y y e i @.#./ + q #.@.O.O.O.O.O.#.I   z #.@.O.#.q   ^ #.X.O.O.O.O.O.O.O.O.O.O.O.O.O.O.O.O.O.O.O.O.O.O.X.#.@.i e y y $.$.$.",
"$.$.$.y y t 7 ) #. .* = X.#.O.O.O.+.#.Q o < #.#.X.O.#.^ v O.@.O.O.O.O.O.O.O.O.O.O.O.O.O.O.O.O.O.O.O.O.O.O.O.X.#.) 2 r y y $.$.$.",
"$.$.$.$.y y 8 B #.#.h o Q #.O.O.#.#.T o $ o.#.o.O.O.X.#.#.@.o.O.O.O.O.O.+.O.O.O.O.O.O.O.O.O.O.O.O.O.O.O.O.O.+.#.B 8 u y $.$.$.$.",
"$.$.$.$.y y r 8 { #.E o < | #.#. .c X ; | #.X.X.O.O.O.O.O.O.O.O.O.O.O.O.O.O.O.O.O.O.O.O.O.O.O.O.O.O.O.O.O.X.#.} 8 r y y $.$.$.$.",
"$.$.$.$.y y u 7 V #.#.h o - n x + X w X.#.X.O.O.O.O.O.O.O.O.+.O.O.O.O.O.O.O.O.O.O.O.O.O.O.O.O.O.O.O.O.O.O.+.#.V 8 u y y $.$.$.$.",
"$.$.$.$.$.y y r 7 _ #.@.x * o O 5 E #.#.o.O.O.O.O.O.O.O.O.O.O.O.O.O.O.O.O.O.O.O.O.O.O.O.O.O.O.O.O.O.O.O.X.#._ 2 r y y $.$.$.$.$.",
"$.$.$.$.$.y y y 8 p #.#.#.[ ^ [ #.#.+.X.O.O.O.O.O.O.O.O.O.O.O.O.O.O.O.O.O.O.O.O.O.O.O.O.O.+.O.O.O.O.O.X.@.#.p 8 y y y $.$.$.$.$.",
"$.$.$.$.$.$.y y y 2 D #.@.#.#.#.@.X.O.O.O.O.O.O.O.O.O.O.O.O.O.O.O.O.O.O.O.O.O.O.O.O.O.O.O.O.O.O.O.O.X.+.#.D 7 y y y $.$.$.$.$.$.",
"$.$.$.$.$.$.$.y y r 2 ( #.O.X.O.O.O.O.O.O.O.O.O.O.O.O.O.O.O.O.O.O.O.O.O.O.O.O.O.O.O.O.O.O.O.O.O.O.O.O.#.( 7 r y y $.$.$.$.$.$.$.",
"$.$.$.$.$.$.$.y y u e 8 { #.X.O.O.O.O.O.O.O.O.O.O.O.O.O.O.O.O.O.O.O.O.O.O.O.O.O.O.O.O.O.O.O.O.O.O.X.#.{ 7 e u y y $.$.$.$.$.$.$.",
"$.$.$.$.$.$.$.$.y y y 8 9 } #.O.O.O.O.O.O.O.O.O.O.O.O.O.O.O.O.O.O.O.O.O.O.O.O.O.O.O.O.O.O.O.O.O.O.#.} 9 e y y y $.$.$.$.$.$.$.$.",
"$.$.$.$.$.$.$.$.$.y y u 8 9 { #.+.X.O.O.O.O.O.O.O.O.O.O.O.O.O.O.O.O.O.O.O.O.O.O.O.O.O.O.O.O.X.+.#.{ 9 8 y y y $.$.$.$.$.$.$.$.$.",
"$.$.$.$.$.$.$.$.$.$.y y u e 7 ( #.@.X.O.O.O.O.O.O.O.O.O.O.O.O.O.O.+.O.O.O.O.O.O.O.O.O.O.O.X.@.#.( 8 8 u y y $.$.$.$.$.$.$.$.$.$.",
"$.$.$.$.$.$.$.$.$.$.$.y y u 8 7 D #.#.+.O.O.O.O.O.O.O.O.O.O.O.O.O.O.O.O.O.O.O.O.O.O.O.O.+.#.#.D 2 e u y y $.$.$.$.$.$.$.$.$.$.$.",
"$.$.$.$.$.$.$.$.$.$.$.$.y y y t 7 a _ #.#.+.X.O.O.O.O.O.O.O.O.O.O.O.O.O.O.O.O.O.O.X.+.#.#._ a 7 r y y y $.$.$.$.$.$.$.$.$.$.$.$.",
"$.$.$.$.$.$.$.$.$.$.$.$.$.y y y y 8 7 V ` #.#.@.O.O.O.O.O.O.O.O.O.O.O.O.O.O.O.O.@.#.#.` V 8 8 y y y y $.$.$.$.$.$.$.$.$.$.$.$.$.",
"$.$.$.$.$.$.$.$.$.$.$.$.$.$.y y y u r 8 8 N ) +.#.#.#.@.+.O.O.O.O.O.O.+.@.#.#.#.@.) N 8 7 r y y y y $.$.$.$.$.$.$.$.$.$.$.$.$.$.",
"$.$.$.$.$.$.$.$.$.$.$.$.$.$.$.$.y y y y r 8 7 i S Q } @.#.#.#.#.#.#.#.#.@.| Q S i 7 8 r u t y y $.$.$.$.$.$.$.$.$.$.$.$.$.$.$.$.",
"$.$.$.$.$.$.$.$.$.$.$.$.$.$.$.$.$.y y y r y t e 8 7 e p V A D H H S S B p e 8 8 e r y y y y y $.$.$.$.$.$.$.$.$.$.$.$.$.$.$.$.$.",
"$.$.$.$.$.$.$.$.$.$.$.$.$.$.$.$.$.$.$.y y y y u u t e 8 8 8 7 8 8 8 8 8 8 e y y y y y y y $.$.$.$.$.$.$.$.$.$.$.$.$.$.$.$.$.$.$.",
"$.$.$.$.$.$.$.$.$.$.$.$.$.$.$.$.$.$.$.$.$.$.y y y y y y y y u y y y y y y y y y y y $.$.$.$.$.$.$.$.$.$.$.$.$.$.$.$.$.$.$.$.$.$.",
"$.$.$.$.$.$.$.$.$.$.$.$.$.$.$.$.$.$.$.$.$.$.$.$.$.y y y y y y y y y y y y y y $.$.$.$.$.$.$.$.$.$.$.$.$.$.$.$.$.$.$.$.$.$.$.$.$.",
"$.$.$.$.$.$.$.$.$.$.$.$.$.$.$.$.$.$.$.$.$.$.$.$.$.$.$.$.y y y y y y y y $.$.$.$.$.$.$.$.$.$.$.$.$.$.$.$.$.$.$.$.$.$.$.$.$.$.$.$.",
"$.$.$.$.$.$.$.$.$.$.$.$.$.$.$.$.$.$.$.$.$.$.$.$.$.$.$.$.$.$.$.$.$.$.$.$.$.$.$.$.$.$.$.$.$.$.$.$.$.$.$.$.$.$.$.$.$.$.$.$.$.$.$.$."
};
