/* XPM */
static char *_aab66d590814896aaefafdf3d81fad1[] = {
/* columns rows colors chars-per-pixel */
"32 32 98 2 ",
"   c #04B97B",
".  c #1DBB7F",
"X  c #04BD84",
"o  c #0DBC82",
"O  c #16BE85",
"+  c #14BF88",
"@  c #24BD82",
"#  c #0BC188",
"$  c #12C28D",
"%  c #15C491",
"&  c #1CC490",
"*  c #00DF94",
"=  c #22C38E",
"-  c #2BC18A",
";  c #24C694",
":  c #2DC794",
">  c #2BC897",
",  c #2DC999",
"<  c #33C593",
"1  c #3FC592",
"2  c #33CA9C",
"3  c #38CB9C",
"4  c #00E096",
"5  c #01E29B",
"6  c #3FCEA4",
"7  c #01E4A3",
"8  c #07E5A8",
"9  c #0EE5AB",
"0  c #16E4A4",
"q  c #1AE5A6",
"w  c #11E5A9",
"e  c #24E5A5",
"r  c #29E5A6",
"t  c #39E6AD",
"y  c #21E9B0",
"u  c #36E8B2",
"i  c #39E8B3",
"p  c #44C796",
"a  c #44CCA0",
"s  c #4CCEA4",
"d  c #50CFA4",
"f  c #49D1A7",
"g  c #5BD0A5",
"h  c #52D2AB",
"j  c #5BD2AC",
"k  c #4FD5B0",
"l  c #55D5B0",
"z  c #5BD5B0",
"x  c #65D2AB",
"c  c #65D5B0",
"v  c #6AD6B3",
"b  c #61D9B8",
"n  c #69DAB9",
"m  c #70D9B7",
"M  c #7BDBBB",
"N  c #46E8B7",
"B  c #48E9B7",
"V  c #49EAB9",
"C  c #5BF2C5",
"Z  c #72EEC6",
"A  c #73EDC8",
"S  c #86DFC3",
"D  c #8DE1C7",
"F  c #81EFCA",
"G  c #95E2CA",
"H  c #9BE2CB",
"J  c #82F0CD",
"K  c #86F3D1",
"L  c #9BF7DA",
"P  c #A7E6CE",
"I  c #ADE8D5",
"U  c #B8E7D4",
"Y  c #B1E9D6",
"T  c #B6EBDA",
"R  c #BBEBDB",
"E  c #B6F5DF",
"W  c #BDF4E4",
"Q  c #C7EFE3",
"!  c #CBEEE3",
"~  c #D2EFE6",
"^  c #C9F1E4",
"/  c #CAF8EA",
"(  c #D0F1E6",
")  c #D3F3EA",
"_  c #DAF4EC",
"`  c #D5F8EC",
"'  c #DCF8EE",
"]  c #DBFDF3",
"[  c #E0F5EE",
"{  c #E5F6F1",
"}  c #E9F7F3",
"|  c #ECF8F5",
" . c #EFFBF8",
".. c #F1F6F3",
"X. c #F2F8F7",
"o. c #F4FBFA",
"O. c #FEFDFE",
"+. c None",
/* pixels */
"+.+.+.+.+.+.+.+.+.+.+.+.+.+.9 9 9 9 +.+.+.+.+.+.+.+.+.+.+.+.+.+.",
"+.+.+.+.+.+.+.+.+.+.+.9 8 7 5 5 5 5 7 8 9 +.+.+.+.+.+.+.+.+.+.+.",
"+.+.+.+.+.+.+.+.+.9 7 * 5 w i V B i w 5 * 7 9 +.+.+.+.+.+.+.+.+.",
"+.+.+.+.+.+.+.9 7 * 0 Z E | O.O.O.O.| E A 0 * 7 9 +.+.+.+.+.+.+.",
"+.+.+.+.+.+.9 5 5 F X.O.O.O.o.X.X.X.O.O.O.| F 5 5 9 +.+.+.+.+.+.",
"+.+.+.+.+.9 5 r ` O.O.} } | | | | | | | } O.O.` r 5 9 +.+.+.+.+.",
"+.+.+.+.9 4 t o.O.} | | } | | | | | | | ..} | O.O.t 4 9 +.+.+.+.",
"+.+.+.9 5 e O.O.} | | | | | | | | | | | } | | } O.O.r 5 9 +.+.+.",
"+.+.+.8 5 ' O.} | | | | | | | | | | | | | | | | { O.' 5 8 +.+.+.",
"+.+.9 * J O.} | } | | | } } | | | | | | | } O.O.} } O.J * 9 +.+.",
"+.+.7 0 o.O.} | | | } o.O.} | | | | | | | O.( _ O.} O.o.0 7 +.+.",
"+.9 4 Z O.} | | | | X.{ {  .} | | | | } O.R X , X.o.{ O.Z 4 9 +.",
"+.8 5 W O.} } O.O.O.O.m s O.| | o.} } o.| 2 ^ d Y O.o.O./ * 8 +.",
"+.7 w X.O.} O.) p S O.H ; O.X.O.O.O.} O.I a O.3 f O.^ G ^ y 7 +.",
"9 5 i O...O.! o j X ' O.> ! O.R @ _ O.O.D b O.a > g j s G C 5 9 ",
"9 5 V O.o.o.o I X.d o.O.z D O.s - f O.O.X k M D } 1 R O.O.N 5 9 ",
"9 5 V O.O.c 3 O.} O.| O.n z T h O.= x : v 3 >  .O.O.O.o.O.B 5 9 ",
"9 5 i O.O.& T O.| X.O.X.$ l z G O.Q @ M O.} | O.} } } o.O.i 5 9 ",
"+.7 9 O.( &  .O.} | O.z M b $ o.O.O.O.O.| O.o.} } | | O.| 9 7 +.",
"+.8 5 ] ! , O.X.} O.Y O O.h # O.| } X.| | | | | | | } O.W 5 8 +.",
"+.9 4 K } & o.O.O.`   T O.P M O.| | | | | | | | | } | O.A * 9 +.",
"+.+.7 0 O.< v O.P   G O.} O.O.} | | | | | | | | | } O.o.0 7 +.+.",
"+.+.9 * L ..$ < < Y O.| | | X.| | | | | | | | | | } O.J 4 9 +.+.",
"+.+.+.8 4  .O.U O.O.} | | | } | | | | | | | | | } O.' 5 7 +.+.+.",
"+.+.+.9 5 e O.O.X.} | | | | | | | | | | | | | } O.O.e 5 9 +.+.+.",
"+.+.+.+.9 5 t o.O.} } | | | | | | | | | | } | O.o.t 5 9 +.+.+.+.",
"+.+.+.+.+.9 4 r ` O.O.} | } | | | | } } } O.O.` r 5 9 +.+.+.+.+.",
"+.+.+.+.+.+.9 5 5 F | O.O.O.X.X.X.X.O.O.O.| F 5 5 9 +.+.+.+.+.+.",
"+.+.+.+.+.+.+.9 7 4 0 Z E X.O.O.O.O.| E Z 0 * 7 9 +.+.+.+.+.+.+.",
"+.+.+.+.+.+.+.+.+.9 7 4 5 9 u N V i w 5 4 7 9 +.+.+.+.+.+.+.+.+.",
"+.+.+.+.+.+.+.+.+.+.+.9 8 7 5 5 5 5 7 8 9 +.+.+.+.+.+.+.+.+.+.+.",
"+.+.+.+.+.+.+.+.+.+.+.+.+.+.9 9 9 9 +.+.+.+.+.+.+.+.+.+.+.+.+.+."
};
